<svg xmlns="http://www.w3.org/2000/svg" viewBox="0 0 512 512" width="512" height="512">
  <style>
    .primary { fill: #4285F4; }
    .secondary { fill: #F4B400; }
    .accent { fill: #0F9D58; }
  </style>
  <circle cx="256" cy="256" r="256" fill="#f8f9fa"/>
  <g transform="translate(100, 80)">
    <!-- Graduation Cap -->
    <path class="primary" d="M312,96c0,53-43,96-96,96s-96-43-96-96s43-96,96-96S312,43,312,96z"/>
    <path class="secondary" d="M156.8,256H267.2c32.8,0,59.2,26.4,59.2,59.2v36c0,4.4-3.6,8-8,8H105.6c-4.4,0-8-3.6-8-8v-36
      C97.6,282.4,124,256,156.8,256z"/>
    <path class="accent" d="M216,0l-96,48v72c0,44.2,35.8,96,96,96s96-51.8,96-96V48L216,0z M216,160c-26.5,0-48-21.5-48-48
      s21.5-48,48-48s48,21.5,48,48S242.5,160,216,160z"/>
    <!-- Graduation Cap Tassel -->
    <path fill="#333" d="M216,160c-26.5,0-48-21.5-48-48s21.5-48,48-48s48,21.5,48,48S242.5,160,216,160z M216,80
      c-17.7,0-32,14.3-32,32s14.3,32,32,32s32-14.3,32-32S233.7,80,216,80z"/>
  </g>
</svg> 