<svg xmlns="http://www.w3.org/2000/svg" viewBox="0 0 512 512" width="512" height="512">
  <style>
    .primary { fill: #DB4437; }
    .secondary { fill: #4285F4; }
    .accent { fill: #F4B400; }
  </style>
  <circle cx="256" cy="256" r="256" fill="#f8f9fa"/>
  <g transform="translate(100, 80)">
    <!-- Teacher with Pointer -->
    <path class="primary" d="M312,96c0,53-43,96-96,96s-96-43-96-96s43-96,96-96S312,43,312,96z"/>
    <path class="secondary" d="M156.8,256H267.2c32.8,0,59.2,26.4,59.2,59.2v36c0,4.4-3.6,8-8,8H105.6c-4.4,0-8-3.6-8-8v-36
      C97.6,282.4,124,256,156.8,256z"/>
    <!-- Pointer/Teaching Stick -->
    <rect class="accent" x="300" y="50" width="10" height="200" rx="5" transform="rotate(30, 300, 50)"/>
    <!-- Glasses -->
    <path fill="#333" d="M180,100c0,8.3-6.7,15-15,15s-15-6.7-15-15s6.7-15,15-15S180,91.7,180,100z"/>
    <path fill="#333" d="M270,100c0,8.3-6.7,15-15,15s-15-6.7-15-15s6.7-15,15-15S270,91.7,270,100z"/>
    <path fill="#333" d="M240,100h-60" stroke="#333" stroke-width="5"/>
  </g>
</svg> 